# xmcd CD database file
# Copyright (C) 1993-1998 Ti Kan
#
# Track frame offsets:
#	150
#	12245
#	22762
#	35830
#	49240
#	62052
#	74515
#	85400
#	97185
#	108997
#	120915
#	132935
#
# Disc length: 1945 seconds
#
# Revision: 1
# Processed by: cddbd v1.4b41PL1 Copyright (c) Steve Scherf et al.
# Submitted via: NotifyCDPlayer(CDDB) 1.51.3
#
DISCID=a107970c
DTITLE=Various Artist - Battle Of The Blues - Eddie "Cleanhead" Vinson  Roy Brown  
DTITLE=Wynonie Harris
DYEAR=1900
DGENRE=
TTITLE0=Big Mouth Gal - Vinson
TTITLE1=Bring It Back - Harris
TTITLE2=If You Don't Think I'm Sinking - Vinson
TTITLE3=Trouble At Midnight - Brown
TTITLE4=Peas And Rice - Vinson
TTITLE5=Rock Mr. Blues - Harris
TTITLE6=Lonesome Train - Vinson
TTITLE7=Old Age Boogie - Brown
TTITLE8=Bald Headed Blues - Vinson
TTITLE9=Grandma Plays The Numbers - Harris
TTITLE10=Good Bread Alley - Vinson
TTITLE11=Queen Of Diamonds - Brown
EXTD=
EXTT0=
EXTT1=
EXTT2=
EXTT3=
EXTT4=
EXTT5=
EXTT6=
EXTT7=
EXTT8=
EXTT9=
EXTT10=
EXTT11=
PLAYORDER=
